<?xml version="1.0" encoding="utf-8"?>
<!-- Generator: Adobe Illustrator 21.1.0, SVG Export Plug-In . SVG Version: 6.00 Build 0)  -->
<svg version="1.1" id="Layer_1" xmlns="http://www.w3.org/2000/svg" xmlns:xlink="http://www.w3.org/1999/xlink" x="0px" y="0px"
	 viewBox="0 0 184.1 78.3" style="enable-background:new 0 0 184.1 78.3;" xml:space="preserve" fill="#ffffff">
<g id="_x35_SExB1.tif">
	<g>
		<path d="M183.1,38.7c-0.4-0.1-0.8,0-1.2,0.1c-0.9,0.2-1.8,0.6-2.7,0.7c-2,0.3-4,0.7-6,0.8c-1.6,0-3.3-0.2-4.8-0.6
			c-0.6-0.2-1.2-1.1-1.4-1.7c-0.1-0.3,0.5-1.1,1-1.3c1.8-0.7,2.2-2.6,3.4-3.7c0.8-0.7,0.9-2.3,1-3.6c0.1-2.3-0.5-4.6-1.7-6.6
			c-0.7-1.2-2.5-1.5-3.6-0.6c-1.3,1.1-2.2,2.4-2.8,4c-0.5,1.2-1,2.5-1.5,3.7c-0.1,0.3-0.1,0.6-0.2,1c-0.4,1.3-0.8,2.5-1.2,3.8
			c-0.1,0.2-0.3,0.5-0.5,0.6c-1.4,0.8-2.9,1.5-4.6,1.5c-1.5,0.1-2.6-1.3-2.2-2.7c0.6-2,1.6-3.8,3-5.3c1.3-1.4,1.3-2.5,0.5-4.1
			c-0.8-1.6-3.2-1.9-4.2-0.5c-0.8,1.1-1.3,2.4-1.9,3.7c-0.1,0.2-0.3,0.5-0.5,0.6c-0.9,0.4-1.8,0.8-2.7,1c-1.1,0.3-2.3,0.6-3.5,0.8
			c-0.3,0.1-0.8-0.1-1-0.3c-0.3-0.5-0.7-1.1-0.7-1.6c0-1.2-0.3-2.2-1.1-3c-0.9-0.9-2-1-2.7,0c-0.4,0.5-0.5,1.3-0.8,1.9
			c-0.7,1.2-0.7,2.4-0.1,3.7c0.6,1.2,1.1,2.5,0.7,3.9c-0.5,1.8-1.3,3.5-3.4,4c-0.1,0-0.2,0.1-0.2,0.2c-1.1,0.6-2.2,0.3-3.1-0.4
			c-1.3-1-1.8-2.5-2.6-3.7c-0.6-0.9-1-2-1.1-3.1c-0.2-1.6-0.2-3.2,0.1-4.8c0.3-2-0.9-2.9-2.6-3.1c-1.4-0.1-2.2,0.9-2.1,2.3
			c0.1,0.9,0,1.9-0.3,2.7c-0.8,1.8-1.7,3.5-2.6,5.2c-0.7,1.2-1.4,2.4-2.2,3.6c-0.4,0.5-0.8,1.1-1.4,1.3c-0.8,0.2-2.4-1.1-2.4-2
			c0-1.8,0.1-3.6,0.1-5.5c0-1.4,0.7-2.8,0.1-4.3c-0.4-1-1.7-1.8-2.6-1.2c-0.7,0.5-1.3,1.2-1.5,2c-0.3,1.1-0.3,2.4-0.4,3.6
			c-0.1,1-0.3,2-0.1,2.9c0.2,1.1-0.4,1.6-1.1,1.8c-2.1,0.6-4.3,1-6.4,1.5c-0.5,0.1-1.1,0.2-1.6,0.3c-0.7,0.2-1.1-0.2-1-0.7
			c0-0.6,0.3-1.4,0.7-1.8c0.8-0.9,0.8-1.9,0.9-2.9c0.1-1.5,0-3-0.1-4.5c0-0.1,0.1-0.2,0.1-0.4c0.1-1.3,0.1-2.7-0.7-3.8
			c-0.4-0.5-1.3-0.8-1.8-0.8c-0.7,0.1-1.6,0.4-1.6,1.4c0,1.1-0.2,2.1-1.1,2.9c-1.6,1.6-3,3.3-4.6,5c-0.3-0.3-0.6-0.5-0.8-0.7
			c-1.1-0.7-1.9-0.4-2.3,0.9c-0.1,0.4-0.4,0.9-0.8,1.2c-1.5,1.4-3.1,2.8-4.6,4.2c-0.5,0.4-1,0.7-1.6,0.9c-0.3,0.1-0.8-0.1-1-0.3
			c-0.6-1.1-1.5-2.2-1.7-3.5c-0.3-1.8-0.2-3.7-0.1-5.5c0.1-1.3-0.1-2.5-0.9-3c-1-0.5-2-0.7-2.8,0.4c-0.6-0.7-1.2-1.2-1.5-1.8
			c-0.7-1.3-2-1.5-3.1-1.6c-1.6-0.2-4.2,1.8-4.9,3.3c-0.6,1.4-1.2,2.8-2,4.1c-1.1,1.9-2.1,3.7-1.5,6c0.2,0.7-0.1,1.1-0.7,1.3
			c-1.2,0.5-2.5,1-3.7,1.5c-1.5,0.6-2.8,0.4-4-0.5c-0.6-0.4-0.7-0.9-0.2-1.6c0.9-1.4,1.6-2.9,2.4-4.3c0.1-0.2,0.1-0.4,0.2-0.6
			c0.2-1.4,0.5-2.7,0.7-4.1c0.2-1.5-0.9-3.2-2.3-3.5c-0.4-0.1-0.9,0-1.4-0.1c-1.4-0.1-3.8,1.1-4.3,2.5c-0.9,2.3-1.2,4.6-0.8,7
			c0.3,1.7,0.6,3.4-0.4,5c-0.2,0.3-0.1,0.6-0.3,0.9c-0.2,0.3-0.5,0.5-0.6,0.8c-0.2,0.3-0.4,0.8-0.3,0.9c0.2,0.3,0.7,0.4,1,0.5
			c0.3,0.1,0.7-0.1,1.1-0.1c0.5,0.1,0.9,0,1.1-0.6c0.2-0.8,0.7-0.7,1.2-0.4c1.6,0.9,3.2,1.7,5.1,1.5c0.2,0,0.3,0,0.5,0.1
			c1.5,0.4,2.9-0.1,3.8-1.3c0.2-0.3,0.6-0.5,0.9-0.7c0.4-0.3,0.9-0.5,1.3-0.9c0.4-0.4,0.7-0.5,1.3-0.1c1,0.6,2.2,1.2,3.4,1.2
			c1,0,2.1-0.8,2.8-1.5c1.4-1.6,3.1-2.8,4.7-4.2c0.4-0.3,0.7-0.6,1,0.1c0.9,2.1,1.6,4.4,3.4,6c0.8,0.7,1.7,1.8,2.9,1.2
			c1.3-0.6,2.6-1.4,3.7-2.3c1.1-0.8,1-0.9,1.8,0.3c1.1,1.8,3.7,2.5,5.5,1.9c1.5-0.5,3.1-0.6,4.7-1c0.8-0.2,1.7-0.4,2.5-0.6
			c0.2-0.1,0.4,0,0.7,0c1.9,0.1,3.7-0.3,5.5-0.9c0.9-0.3,1.8-0.5,2.7-0.7c0.3-0.1,0.6-0.1,0.9-0.3c1-0.6,1.7-0.5,2.5,0.2
			c0.6,0.5,1.1,1.1,1.7,1.6c1.3,0.9,2.7,1.3,4.3,0.7c0.9-0.3,1.5-0.9,2.2-1.5c0.6-0.5,1.4-1,1.9-1.7c0.7-0.9,1.2-1.9,1.9-2.8
			c0.4-0.5,0.8-0.9,1.2-1.3c1.2,2,2.3,3.8,3.4,5.5c0.4,0.5,0.9,0.9,1.5,1.3c0.4,0.3,0.9,0.4,1.3,0.6c1.6,0.8,3,0.7,4.7,0
			c0.9-0.4,1.6-1,2.4-1.5c2.1-1.1,2.9-3.1,3.9-5c0.5-0.9,1-1.3,1.9-1.4c0.2,0,0.4,0,0.6-0.1c1.3-0.5,2.6-1,3.9-1.5
			c0.5-0.2,0.9-0.1,0.8,0.5c-0.2,1.7,0.7,3.1,1.2,4.6c0.3,0.8,1,1.5,1.7,2c0.4,0.3,1.1,0,1.6,0c0.3,0,0.5,0,0.8,0.1
			c1,0.5,1.9,0.3,2.8-0.1c0.9-0.4,1.8-0.6,2.6-1c0.7-0.3,1.1-0.1,1.5,0.6c1.5,2.4,3.6,4,6.4,4.6c2.4,0.5,4.8-0.2,7.1-0.6
			c1.3-0.3,2.5-0.8,3.7-1.4c1-0.5,1.8-1.1,2.8-1.7c0.3-0.2,0.8-0.3,1-0.5c0.3-0.3,0.5-0.8,0.6-1.2C184.1,39.1,183.4,38.8,183.1,38.7
			z M167.2,29.5c0.1-0.4,0.3-0.8,0.3-1.2c0.1-0.5,0.7-0.8,1.2-0.7c0.5,0.1,0.8,0.7,0.7,1.2c-0.1,0.4-0.2,0.8-0.3,1.2
			c-0.2,0.5-0.6,0.8-1.2,0.7C167.4,30.6,167,30,167.2,29.5z M51,33.2c0.3-1,0.8-1.9,0.9-2.9c0-1.3,2-1.3,2,0c0,1.2-0.6,2.3-1,3.4
			C52.5,35,50.6,34.4,51,33.2z M72.7,33.5c-0.2,0.3-0.5,0.5-0.7,0.7c-0.7,0.7-1.3,1.4-1.9,2.1c-0.6,0.6-1.2,1.2-1.9,1.6
			c-0.5,0.3-1.4,0.5-1.8,0.3c-0.4-0.3-0.8-1.3-0.6-1.8c0.7-2.5,1.3-5,3.4-6.8c0.6-0.5,1.3-0.8,2.1-1.3c0.6,0.5,1.2,0.7,1.5,1.2
			C73.6,30.9,73.7,32.2,72.7,33.5z M98.4,32.8c-0.4,1.5-0.9,2.9-1.3,4.3c-0.2,0.7-0.6,0.8-1.2,0.6c-0.9-0.3-1.9-0.7-3-1.2
			c0.4-0.3,0.7-0.5,1-0.7c0.3-0.2,0.7-0.4,0.8-0.7c0.4-1.4,1.7-2.1,2.7-3.1c0.2-0.2,0.6-0.2,0.9-0.2C98.3,32.1,98.5,32.5,98.4,32.8z
			"/>
		<path d="M28.3,31.5c-0.2-0.2-0.3-0.5-0.5-0.7c-0.7-1.1-1.3-2.3-2.3-3.1c-1.7-1.4-3.4-2.9-5.6-3.5c-0.6-0.2-1.3-0.4-1.8-0.8
			c-2.4-1.6-5.1-1.4-7.7-1.7c-2-0.2-4,0.2-6,0.3C2,22.1,1,22.9,0.3,25.4c0,0.1,0,0.1-0.1,0.2c-0.7,2.4,0.4,5.5,2.4,6.9
			c0.5,0.3,0.9,0.6,1.6,1.1c0.5-0.7,1-1.4,1.4-2.2c0.2-0.4,0.3-1,0.3-1.5c0-0.7-0.2-1.4-0.3-2.1c-0.1-0.5-0.1-1.2-0.9-1.3
			c-0.1,0-0.4-0.4-0.4-0.6c0-0.2,0.3-0.6,0.5-0.6c0.4,0,0.8,0.2,1.4,0.5c1.5-0.8,3.4-0.9,5.3-0.8c2.4,0.1,4.7,0.8,6.8,1.8
			c2.4,1.1,4.9,2.5,6.6,4.8c1.7,2.2,3.6,4.3,3.4,7.4c-0.1,1.6-0.1,3.3-1.3,4.6c-0.7,0.8-1.5,1.6-2.3,2.4c-0.2,0.2-0.4,0.3-0.7,0.4
			c-1.8,0.8-3.7,1.6-5.5,2.4c-0.7,0.3-1.4,0.4-2,0.7c-0.9,0.4-1.8,0.1-1.7-0.9c0-0.9,0.3-1.7,0.5-2.5c0-0.1,0.3-0.3,0.4-0.3
			c0.6-0.2,1.3-0.4,1.9-0.7c0.3-0.2,0.5-0.6,0.7-0.9c-1.2-0.7-1.7,0.2-2.4,0.6c-0.2,0.1-0.5,0.2-0.8,0.3c-0.1-0.3-0.2-0.5-0.1-0.8
			c0-0.7,0.1-1.5,0.1-2.2c0-1.3,0-2.6,0.1-3.8c0.1-2,0.2-3.9,0.3-5.9c0-0.7-0.3-1.4-1.1-1.5c-0.8,0-1.2,0.6-1.3,1.4
			c-0.2,1.5-0.5,3.1-0.6,4.6c-0.1,2.1-0.1,4.3-0.1,6.4c0,1.4-0.2,1.8-1.6,2.1c-0.8,0.2-1.3,0.6-1.6,1.3c-0.2,0.6-0.5,1.3-0.5,1.9
			c0,1-0.1,2,1.3,2.6c1.2,0.5,2.3,1.6,2.3,3.1c0,1.1,0,2.2-0.1,3.3c-0.1,1.3-0.4,2.6-0.4,3.9c-0.1,2.1-0.2,4.2-0.3,6.3
			c-0.1,2.2-0.2,4.4-0.3,6.6c-0.1,1.1-0.2,2.1-0.2,3.2c0,0.9,0.9,1.3,1.6,0.8c1-0.7,1.6-1.7,1.5-3c-0.1-1.7-0.2-3.5-0.1-5.2
			c0.3-3.9,0.7-7.9,1-11.8c0-0.5,0.1-1,0-1.4c-0.5-1.1-0.2-2.1,0.1-3.2c0.2-0.9,0.6-1.1,1.5-1.1c0.9,0,1.9-0.3,2.8-0.6
			c0.7-0.2,1.3-0.7,2-1c0.8-0.4,1.8-0.5,2.6-1.1c1.5-1.1,3-2.3,4.4-3.6c0.7-0.6,1.2-1.4,1.7-2.2c0.8-1.5,1.2-3.1,1.3-4.9
			C31.2,36.2,30.4,33.6,28.3,31.5z"/>
		<path d="M42.2,6.4c0,1.7,0,3.4,0,5.1c0,3.2-0.1,6.4-0.2,9.6c0,1.1-0.3,2.3-0.4,3.4c-0.1,1.3-0.1,2.7-0.3,4c-0.2,1.7-0.6,3.3-0.9,5
			c0,0.3,0,0.5-0.1,0.8c-0.1,0.8-0.2,1.6-0.2,2.3c0,0.6-0.2,1.2,0.5,1.6c0.2,0.1,0.2,0.7,0.2,1c-0.3,1.2-0.6,2.4-1.2,3.4
			c-0.3,0.5-1.3,0.8-1.9,0.8c-0.4,0-1-0.8-1.1-1.3c-0.2-0.8,0-1.6,0.1-2.4c0.5-3.7,1-7.4,1.5-11.1c0.2-1.9,0.2-3.9,0.4-5.8
			c0.1-1.6,0.3-3.2,0.3-4.9c0-1.8-0.1-3.6-0.1-5.3c0-0.5,0.2-0.9,0.2-1.4c0-1.1,0.1-2.3,0-3.4c0-0.1-0.6-0.3-0.9-0.3
			c-0.5-0.1-1.2,0.1-1.4-0.2c-0.3-0.3-0.4-1-0.3-1.5c0.3-1.3,0.7-2.6,1.1-3.9c0.4-1.4,1.5-2.1,3-1.7c0.2,0,0.4,0.2,0.5,0.3
			c0.9,1.5,1.5,3,1.4,4.7c0,0.4-0.1,0.8-0.1,1.3C42.3,6.4,42.2,6.4,42.2,6.4z"/>
	</g>
</g>
</svg>
